<?xml version="1.0" encoding="UTF-8"?>
<svg version="1.1" xmlns="http://www.w3.org/2000/svg" width="1024" height="1024">
<path d="M0 0 C2.3125 1.25 2.3125 1.25 3.3125 3.25 C3.30657641 5.62535808 3.25719695 8.00065726 3.1875 10.375 C2.9140684 32.89349779 11.20044241 50.55399265 26.78369141 66.71875 C31.47204298 71.41458856 36.36239446 75.90600843 41.2265625 80.41796875 C47.29872259 86.09377747 52.89486493 91.49910578 57.4375 98.5 C57.86490479 99.15331299 58.29230957 99.80662598 58.73266602 100.47973633 C70.66981016 119.07926059 74.06632391 140.72889899 69.71826172 162.33349609 C64.63209725 185.47751579 51.29425756 204.42220502 31.3125 217.25 C12.38374334 228.16543862 -7.95792412 232.45934232 -29.33984375 227.23046875 C-46.43786483 222.22276363 -62.72920313 213.68884774 -73.6875 199.25 C-74.25855469 198.51394531 -74.82960937 197.77789063 -75.41796875 197.01953125 C-89.25173536 178.29966606 -95.49755429 155.43771354 -92.19140625 132.265625 C-89.0423584 115.11487853 -81.76813709 99.90590552 -69.6875 87.25 C-66.23087669 84.94558446 -64.73892119 84.99139865 -60.6875 85.25 C-59.6975 85.745 -59.6975 85.745 -58.6875 86.25 C-57.34953035 92.38852406 -57.96153364 96.38640946 -60.125 102.1875 C-62.54099635 109.25385978 -63.65832192 114.68713696 -62.0625 122.1875 C-60.05721167 125.19543249 -58.16898093 125.51353288 -54.6875 126.25 C-50.01571217 126.72671304 -47.45288853 126.0740414 -43.6875 123.25 C-40.632356 118.667284 -41.06668412 114.63040426 -41.6875 109.25 C-42.86380355 104.15030826 -44.4689338 99.16840519 -46.11499023 94.20361328 C-51.72285977 75.06750582 -47.14914929 54.18355657 -37.8984375 37.0859375 C-32.90096813 28.23671654 -27.23058479 20.12471019 -19.6875 13.25 C-18.883125 12.425 -18.07875 11.6 -17.25 10.75 C-4.84527577 -1.35216998 -4.84527577 -1.35216998 0 0 Z M-16.6875 39.25 C-27.32209185 58.97045674 -28.66009278 76.68659387 -23.15283203 98.35351562 C-21.76555439 104.03225502 -21.32148101 109.41234447 -21.3125 115.25 C-21.28800781 116.08789062 -21.26351562 116.92578125 -21.23828125 117.7890625 C-21.19616758 126.85753889 -24.54498346 133.94749299 -30.71484375 140.5234375 C-36.82320042 145.86976155 -44.6896166 147.7229366 -52.6875 147.25 C-57.14915654 146.23387707 -61.39065318 144.81098543 -65.6875 143.25 C-67.68611257 142.5791854 -69.68571193 141.91127827 -71.6875 141.25 C-72.71449591 145.2259413 -72.60586301 148.33444181 -71.9375 152.375 C-71.77765625 153.40882813 -71.6178125 154.44265625 -71.453125 155.5078125 C-70.64776588 158.39231303 -70.06119602 159.48701218 -67.6875 161.25 C-62.41952292 163.00599236 -56.74520031 162.47561322 -51.22875977 162.49023438 C-49.02516198 162.49988975 -46.82251763 162.53089975 -44.61914062 162.5625 C-32.99584235 162.65314112 -26.16231367 161.02866047 -17.27734375 153.08984375 C-10.43149203 148.22650113 -2.59355738 148.98597928 5.46484375 149.0546875 C7.34774864 149.05893234 7.34774864 149.05893234 9.26869202 149.06326294 C12.58464347 149.07252873 15.90031301 149.09045701 19.21618652 149.1126709 C22.60829245 149.13323405 26.00042766 149.14228691 29.39257812 149.15234375 C36.03262917 149.17434876 42.67254833 149.20778505 49.3125 149.25 C49.3414985 147.37248929 49.36193517 145.49484545 49.37890625 143.6171875 C49.39123291 142.57159668 49.40355957 141.52600586 49.41625977 140.44873047 C48.72270074 119.06752959 33.88103131 103.1419019 19.3125 89.25 C14.68182435 84.69601914 14.68182435 84.69601914 9.22265625 81.32421875 C6.81767487 79.97172411 6.43322337 78.72763225 5.3125 76.25 C4.30382005 75.07502416 3.25857048 73.93089685 2.1875 72.8125 C-4.88389204 64.87191602 -9.84940151 55.67894611 -13.6796875 45.80859375 C-14.5715561 43.54435369 -15.56166887 41.40530735 -16.6875 39.25 Z M15.75 183.375 C12.1508628 186.98161982 10.47129301 190.26508742 10.0625 195.375 C10.09776108 198.44847082 10.09776108 198.44847082 12.3125 201.25 C16.9459165 202.10103568 19.81369206 201.25483075 23.6875 198.8125 C33.06347496 191.96756073 43.12977459 182.02835218 46.03125 170.359375 C46.17046875 169.31523438 46.17046875 169.31523438 46.3125 168.25 C34.8259313 168.25 23.76049665 175.72533653 15.75 183.375 Z M-59.6875 186.25 C-58.04297031 187.94436393 -56.38034159 189.60466162 -54.6875 191.25 C-54.2028125 191.73082031 -53.718125 192.21164062 -53.21875 192.70703125 C-47.81012666 197.73121813 -40.37838861 202.87107028 -32.8828125 203.4765625 C-30.71313721 203.48589757 -30.71313721 203.48589757 -29.6875 202.25 C-28.99466299 196.63454413 -28.99466299 196.63454413 -31.5625 191.9375 C-40.35202528 187.19115635 -49.83457425 186.07714165 -59.6875 186.25 Z " fill="#3FAF98" transform="translate(217.6875,373.75)"/>
<path d="M0 0 C0.66 -1.32 1.32 -2.64 2 -4 C3.64574566 -4.02688151 5.29161413 -4.04634123 6.9375 -4.0625 C8.31228516 -4.07990234 8.31228516 -4.07990234 9.71484375 -4.09765625 C12 -4 12 -4 13 -3 C13.10915594 -1.36547157 13.14906586 0.27374052 13.16113281 1.91186523 C13.17074036 2.96063339 13.1803479 4.00940155 13.19024658 5.08995056 C13.19449646 6.23460281 13.19874634 7.37925507 13.203125 8.55859375 C13.20882507 9.73204849 13.21452515 10.90550323 13.22039795 12.11451721 C13.2298705 14.60880629 13.23639082 17.10310801 13.24023438 19.59741211 C13.2498793 23.39003939 13.2808567 27.18211085 13.3125 30.97460938 C13.3190359 33.39843428 13.32428406 35.82226307 13.328125 38.24609375 C13.3404718 39.37252792 13.3528186 40.4989621 13.36553955 41.65953064 C13.33816152 51.48589964 12.03723568 60.07324443 4.99609375 67.3046875 C-1.57670605 72.88706541 -8.21018443 73.66191796 -16.69140625 73.37890625 C-23.86036492 72.5579039 -28.35996633 69.47267814 -32.8125 63.8828125 C-34.62627364 61.00702666 -35.32237057 58.3203842 -36 55 C-35 54 -35 54 -32.71484375 53.90234375 C-31.34005859 53.91974609 -31.34005859 53.91974609 -29.9375 53.9375 C-29.01839844 53.94652344 -28.09929688 53.95554687 -27.15234375 53.96484375 C-26.44207031 53.97644531 -25.73179687 53.98804688 -25 54 C-24.566875 54.94875 -24.13375 55.8975 -23.6875 56.875 C-22.20697799 60.20041937 -22.20697799 60.20041937 -19 62 C-14.6608099 63.11843466 -10.40256774 63.4834969 -6.125 62 C-2.11936045 59.43639069 -1.2864054 57.54025435 0 53 C0.25197243 49.20747213 0.25197243 49.20747213 0 46 C-0.60585938 46.37253906 -1.21171875 46.74507812 -1.8359375 47.12890625 C-8.25843921 50.75514952 -12.8110402 51.92960623 -20 50 C-27.239425 47.51501348 -31.3041432 43.39171359 -34.75 36.5 C-38.60378955 25.70938926 -37.1759228 16.46710061 -33 6 C-29.76779516 0.21546788 -24.44051173 -2.90529172 -18.25 -4.875 C-11.63216252 -5.12953221 -5.143625 -4.3950223 0 0 Z M-22.3125 10.375 C-25.85257435 15.88178232 -25.50106324 22.65016227 -25 29 C-24.10891317 32.82395529 -22.49018053 35.467804 -19.8125 38.375 C-16.19050802 40.46770648 -13.17739371 41.19696945 -9 41 C-3.74404317 39.28170642 -1.62627733 36.78258925 1 32 C1.36265107 29.16732396 1.51932308 26.80837922 1.4375 24 C1.44458984 23.31421875 1.45167969 22.6284375 1.45898438 21.921875 C1.38734325 16.14649836 -0.33340622 12.28385074 -3.6875 7.6875 C-10.31967397 2.84780548 -16.94899265 4.86653299 -22.3125 10.375 Z " fill="#42AF97" transform="translate(845,493)"/>
<path d="M0 0 C5.51127988 6.18338718 5.99871804 12.70999912 5.85546875 20.625 C5.85122391 21.52371826 5.84697906 22.42243652 5.84260559 23.34838867 C5.82594584 26.19091012 5.78831832 29.03269645 5.75 31.875 C5.73493671 33.81379177 5.72125119 35.75259477 5.70898438 37.69140625 C5.6760841 42.41954979 5.62439115 47.14715069 5.5625 51.875 C1.9325 51.875 -1.6975 51.875 -5.4375 51.875 C-5.45208252 50.82111084 -5.46666504 49.76722168 -5.48168945 48.68139648 C-5.53994945 44.74681787 -5.61717904 40.81279507 -5.69995117 36.87866211 C-5.73307083 35.18051214 -5.76114261 33.48225552 -5.78393555 31.78393555 C-5.81772169 29.33336213 -5.87004639 26.88375469 -5.92578125 24.43359375 C-5.93217117 23.68226669 -5.9385611 22.93093964 -5.94514465 22.15684509 C-6.08192707 17.17996226 -6.71653226 11.59596774 -10.4375 7.875 C-13.49164473 7.43328485 -16.38704866 7.40290634 -19.4375 7.875 C-22.71925318 10.40468474 -24.12993777 11.95231331 -25.4375 15.875 C-25.59120348 18.60383073 -25.69478265 21.31197142 -25.75390625 24.04296875 C-25.77468735 24.83778152 -25.79546844 25.6325943 -25.81687927 26.45149231 C-25.88222087 28.98840763 -25.94118808 31.52542573 -26 34.0625 C-26.04319986 35.78321372 -26.08681463 37.50391708 -26.13085938 39.22460938 C-26.23788648 43.44130113 -26.33919724 47.6580962 -26.4375 51.875 C-30.0675 51.875 -33.6975 51.875 -37.4375 51.875 C-37.467229 50.30202148 -37.467229 50.30202148 -37.49755859 48.69726562 C-37.57410773 44.77581324 -37.66274568 40.85470828 -37.75488281 36.93359375 C-37.79297015 35.2422577 -37.8278569 33.55084622 -37.859375 31.859375 C-37.90546898 29.41639394 -37.96338559 26.97392319 -38.0234375 24.53125 C-38.03498871 23.78508423 -38.04653992 23.03891846 -38.05844116 22.2701416 C-38.19815541 17.20643853 -39.06356665 12.7536686 -40.4375 7.875 C-45.37127849 6.67163939 -48.70905739 7.00146613 -53.4375 8.875 C-57.72674275 13.3072175 -57.6270447 18.18306573 -57.75390625 24.04296875 C-57.77468735 24.83778152 -57.79546844 25.6325943 -57.81687927 26.45149231 C-57.88222087 28.98840763 -57.94118808 31.52542573 -58 34.0625 C-58.04319986 35.78321372 -58.08681463 37.50391708 -58.13085938 39.22460938 C-58.23788648 43.44130113 -58.33919724 47.6580962 -58.4375 51.875 C-62.0675 51.875 -65.6975 51.875 -69.4375 51.875 C-70.32070301 45.81799902 -70.58427494 39.944509 -70.5703125 33.828125 C-70.57126923 32.89450134 -70.57222595 31.96087769 -70.57321167 30.9989624 C-70.57388829 29.03918388 -70.57207038 27.07940305 -70.56787109 25.11962891 C-70.56249115 22.12006635 -70.5678461 19.12065186 -70.57421875 16.12109375 C-70.57355835 14.21093717 -70.57227798 12.30078068 -70.5703125 10.390625 C-70.57233673 9.49579407 -70.57436096 8.60096313 -70.57644653 7.67901611 C-70.57329437 6.84424744 -70.57014221 6.00947876 -70.56689453 5.14941406 C-70.56609894 4.41853577 -70.56530334 3.68765747 -70.56448364 2.93463135 C-70.4375 0.875 -70.4375 0.875 -69.4375 -3.125 C-66.1375 -3.125 -62.8375 -3.125 -59.4375 -3.125 C-58.7775 -1.475 -58.1175 0.175 -57.4375 1.875 C-56.65375 1.235625 -55.87 0.59625 -55.0625 -0.0625 C-49.70082554 -4.27524422 -44.0599427 -3.72997345 -37.4375 -3.125 C-34.87054667 -2.09332923 -33.56538284 -0.98007735 -31.4375 0.875 C-30.1183418 1.56929379 -28.79100594 2.25030495 -27.4375 2.875 C-26.6125 2.09125 -25.7875 1.3075 -24.9375 0.5 C-17.72172969 -5.41760603 -7.62266593 -5.57986712 0 0 Z " fill="#41AF97" transform="translate(606.4375,492.125)"/>
<path d="M0 0 C4.89177921 4.75300533 7.32248791 10.65437302 7.72265625 17.41015625 C7.50087721 24.33459077 5.29134508 30.15749111 0.1640625 35.015625 C-2.23556264 37.05798585 -4.72624372 38.8578604 -7.34765625 40.60546875 C-2.08706186 48.90054312 3.29471278 57.06143902 9 65.05859375 C10.65234375 67.60546875 10.65234375 67.60546875 10.65234375 69.60546875 C6.08158755 70.46455703 2.19586517 70.71298815 -2.34765625 69.60546875 C-6.32374961 65.68458841 -8.79182131 61.00138391 -11.41015625 56.10546875 C-12.78840479 53.54144846 -14.22202795 51.02205438 -15.6953125 48.51171875 C-16.30383057 47.38056641 -16.91234863 46.24941406 -17.53930664 45.08398438 C-21.22290918 41.28205734 -21.22290918 41.28205734 -32.34765625 42.60546875 C-32.34765625 51.51546875 -32.34765625 60.42546875 -32.34765625 69.60546875 C-36.30765625 69.60546875 -40.26765625 69.60546875 -44.34765625 69.60546875 C-44.34765625 45.18546875 -44.34765625 20.76546875 -44.34765625 -4.39453125 C-30.95333633 -6.30800552 -11.54392447 -8.32236415 0 0 Z M-33.34765625 5.60546875 C-33.43513832 7.53214382 -33.45462959 9.46198736 -33.4453125 11.390625 C-33.44208984 12.56044922 -33.43886719 13.73027344 -33.43554688 14.93554688 C-33.42716797 16.16724609 -33.41878906 17.39894531 -33.41015625 18.66796875 C-33.40564453 19.90353516 -33.40113281 21.13910156 -33.39648438 22.41210938 C-33.38465233 25.47660992 -33.36816798 28.54101596 -33.34765625 31.60546875 C-30.13963392 31.72245133 -26.932166 31.79297482 -23.72265625 31.85546875 C-22.81902344 31.88898438 -21.91539062 31.9225 -20.984375 31.95703125 C-15.26776529 32.04048541 -11.78180311 31.60599242 -7.34765625 27.60546875 C-4.40902094 23.39653 -4.8353971 18.5359631 -5.34765625 13.60546875 C-7.08633599 9.30452413 -9.19877601 7.56901963 -13.34765625 5.60546875 C-16.59121899 5.08341968 -19.81717145 4.95875238 -23.09765625 4.85546875 C-23.97292969 4.81292969 -24.84820312 4.77039063 -25.75 4.7265625 C-29.86561513 4.17199549 -29.86561513 4.17199549 -33.34765625 5.60546875 Z " fill="#40AF97" transform="translate(364.34765625,474.39453125)"/>
<path d="M0 0 C3.63 0 7.26 0 11 0 C11 24.75 11 49.5 11 75 C8.47946405 76.26026798 7.1457902 75.91874445 4.375 75.5625 C3.14910156 75.40974609 3.14910156 75.40974609 1.8984375 75.25390625 C1.27195312 75.17011719 0.64546875 75.08632813 0 75 C-0.33 73.68 -0.66 72.36 -1 71 C-1.70125 71.61875 -2.4025 72.2375 -3.125 72.875 C-8.6218502 76.93788928 -14.31174293 77.89706674 -21 77 C-27.18270859 75.11928536 -31.5817066 71.43083892 -35 66 C-39.42706521 57.40709393 -40.63359726 48.31126358 -38.19921875 38.90625 C-36.11088544 32.90733116 -33.93626293 26.9218618 -28.5 23.25 C-27.9121875 22.84265625 -27.324375 22.4353125 -26.71875 22.015625 C-23.13553708 19.89827191 -19.88704525 19.77825775 -15.8125 19.6875 C-14.72582031 19.65011719 -13.63914062 19.61273438 -12.51953125 19.57421875 C-8.07723568 20.11163297 -4.84522067 21.8005114 -1 24 C-1.00523682 23.34402832 -1.01047363 22.68805664 -1.01586914 22.01220703 C-1.03661272 19.04981437 -1.04965176 16.08743697 -1.0625 13.125 C-1.07087891 12.09246094 -1.07925781 11.05992187 -1.08789062 9.99609375 C-1.09111328 9.00996094 -1.09433594 8.02382813 -1.09765625 7.0078125 C-1.10289307 6.09660645 -1.10812988 5.18540039 -1.11352539 4.24658203 C-1 2 -1 2 0 0 Z M-21 31 C-25.96741247 35.96741247 -27.29890464 40.91065099 -27.375 47.8125 C-27.27049246 54.93394267 -26.10487719 59.7916269 -21.125 64.9375 C-17.01208921 66.9939554 -13.88917203 67.15330552 -9.375 66.375 C-5.46729495 64.78297202 -4.15698629 63.59497715 -2 60 C0.96287155 52.44467756 1.22301036 44.25194914 -2.0234375 36.7578125 C-4.22624574 32.79275767 -6.56138638 30.46911314 -10.875 29.0625 C-14.72235501 28.9855529 -17.43086049 29.54590613 -21 31 Z " fill="#41AF97" transform="translate(517,469)"/>
<path d="M0 0 C0.6811084 -0.00644531 1.3622168 -0.01289063 2.06396484 -0.01953125 C7.68759354 0.12280445 11.69112 1.54934991 15.88671875 5.296875 C23.75515138 14.4675424 23.94094808 19.42327318 24.875 32.5 C12.335 32.5 -0.205 32.5 -13.125 32.5 C-10.98652967 40.47293637 -10.98652967 40.47293637 -6.125 45.5 C-3.35447819 46.42350727 -1.55811242 46.66329585 1.3125 46.6875 C2.07433594 46.70167969 2.83617187 46.71585938 3.62109375 46.73046875 C6.16323693 46.4705269 7.72698154 45.87286397 9.875 44.5 C10.308125 43.654375 10.74125 42.80875 11.1875 41.9375 C12.875 39.5 12.875 39.5 16.3125 38.6875 C18.83062272 38.55496723 21.35339199 38.5 23.875 38.5 C23.57749032 44.45019362 20.9750766 48.37352805 16.875 52.5 C10.24139811 56.86816427 3.73845202 58.26852435 -4.125 57.5 C-11.86971524 55.69596396 -16.67603608 52.01853767 -21.125 45.5 C-25.76668489 37.60913568 -25.94272308 27.97670848 -24.0625 19.1875 C-21.85090027 11.636182 -17.66877138 5.32162079 -10.734375 1.34375 C-7.17303925 0.19218036 -3.71011998 0.03376673 0 0 Z M-10.4375 14.8125 C-12.30981639 17.79433722 -12.64439078 20.0500823 -13.125 23.5 C-10.10410522 23.52716089 -7.08345871 23.54691657 -4.0625 23.5625 C-3.21494141 23.57087891 -2.36738281 23.57925781 -1.49414062 23.58789062 C3.4111722 23.60683006 8.03944755 23.33326345 12.875 22.5 C11.32760863 16.60651446 11.32760863 16.60651446 8.1875 11.5 C0.76247651 8.28917903 -4.68624646 9.06124646 -10.4375 14.8125 Z " fill="#41AF97" transform="translate(643.125,488.5)"/>
<path d="M0 0 C4.73850401 4.63320392 6.45754 8.66779577 8 15 C8 18.96 8 22.92 8 27 C-4.21 27 -16.42 27 -29 27 C-26.32654194 37.33598506 -26.32654194 37.33598506 -22.25 40.1875 C-17.24089341 41.43977665 -13.09348882 41.8839175 -8.1875 39.8125 C-5.81428506 38.12064451 -5.81428506 38.12064451 -4.8125 35.3125 C-3 33 -3 33 -0.59375 32.6796875 C1.95489557 32.68684662 4.4608799 32.78562776 7 33 C7.33 33.66 7.66 34.32 8 35 C5.40821464 41.64849287 1.91211082 45.97307169 -4 50 C-11.01251235 52.93250517 -17.98235955 52.94952465 -25.125 50.5 C-31.6144317 47.64384266 -35.91272269 42.76728261 -38.875 36.375 C-42.07359819 26.77920542 -41.99233895 17.34056659 -38 8 C-34.11639211 1.0796769 -28.74877598 -3.55472035 -21.125 -5.875 C-12.80393965 -6.20784241 -6.57285697 -5.41380407 0 0 Z M-26.25 9.3125 C-28.46532748 12.3223218 -28.46532748 12.3223218 -29 18 C-20.42 18 -11.84 18 -3 18 C-4.6494368 9.90856802 -4.6494368 9.90856802 -10 5 C-17.0407451 2.94272239 -21.13627323 4.05672526 -26.25 9.3125 Z " fill="#41B098" transform="translate(416,494)"/>
<path d="M0 0 C7.8974884 8.71381533 8 14.85681579 8 27 C-4.21 27 -16.42 27 -29 27 C-26.34066833 37.9096453 -26.34066833 37.9096453 -20 41 C-15.32017557 41.90340959 -11.80192068 41.40825053 -7.5625 39.25 C-4.69408473 37.01656365 -4.69408473 37.01656365 -3 33 C0.3 33 3.6 33 7 33 C7.33 33.66 7.66 34.32 8 35 C5.53391395 42.25413624 0.80451091 47.51050723 -6 51 C-13.48975282 53.28853558 -21.11669471 52.7383027 -28.06640625 49.1953125 C-33.92587293 45.57309673 -37.81649742 40.15228871 -39.69140625 33.57421875 C-41.79087065 23.89906463 -41.66369227 14.48441109 -36.67578125 5.65625 C-32.57689446 -0.11016292 -28.19590636 -3.63852341 -21.25 -5.375 C-13.41505333 -6.69655727 -6.0896479 -5.25924137 0 0 Z M-26.25 9.3125 C-28.46532748 12.3223218 -28.46532748 12.3223218 -29 18 C-20.42 18 -11.84 18 -3 18 C-4.99844361 10.00264016 -4.99844361 10.00264016 -10 5 C-17.09967043 3.09521037 -21.08096419 3.99987987 -26.25 9.3125 Z " fill="#42AF97" transform="translate(904,494)"/>
<path d="M0 0 C3.38798215 2.85533547 5.13757909 6.14320601 6.515625 10.27734375 C6.65708783 12.76734471 6.74876382 15.23468512 6.796875 17.7265625 C6.82448914 18.82373344 6.82448914 18.82373344 6.85266113 19.94306946 C6.91134092 22.28357993 6.96411804 24.62416515 7.015625 26.96484375 C7.0673237 29.28766141 7.12048403 31.61039293 7.17858887 33.93305969 C7.21468565 35.37664465 7.24723064 36.82032466 7.2755127 38.26408386 C7.39367279 43.00262403 7.86810372 47.58904066 8.515625 52.27734375 C4.555625 52.27734375 0.595625 52.27734375 -3.484375 52.27734375 C-3.979375 50.29734375 -3.979375 50.29734375 -4.484375 48.27734375 C-4.94328125 48.62667969 -5.4021875 48.97601562 -5.875 49.3359375 C-6.79539062 50.01849609 -6.79539062 50.01849609 -7.734375 50.71484375 C-8.33765625 51.16730469 -8.9409375 51.61976563 -9.5625 52.0859375 C-14.35359924 55.05602951 -20.26364793 55.01834436 -25.640625 53.78125 C-31.30575142 51.91048997 -33.94045243 49.21079664 -36.734375 43.90234375 C-38.04509406 39.31482703 -37.97636368 35.64397896 -36.359375 31.15234375 C-33.40116865 26.61642735 -29.5394804 23.3445518 -24.484375 21.27734375 C-22.01709935 20.83075307 -19.53491833 20.46304094 -17.046875 20.15234375 C-15.74878906 19.98476563 -14.45070313 19.8171875 -13.11328125 19.64453125 C-10.19445804 19.34919284 -7.41180707 19.19837641 -4.484375 19.27734375 C-4.79462175 14.10262936 -4.79462175 14.10262936 -6.546875 9.33984375 C-9.71975523 7.59987717 -12.92392118 7.16965517 -16.484375 7.27734375 C-19.88694555 8.22773028 -19.88694555 8.22773028 -22.484375 10.27734375 C-23.144375 11.92734375 -23.804375 13.57734375 -24.484375 15.27734375 C-28.114375 14.94734375 -31.744375 14.61734375 -35.484375 14.27734375 C-35.26006928 8.78185349 -34.01900618 5.77801325 -30.19140625 1.7890625 C-22.57161707 -4.95889725 -8.57953947 -5.24097954 0 0 Z M-23.484375 31.27734375 C-25.81186845 34.76858392 -25.98736816 36.16956626 -25.484375 40.27734375 C-24.24046795 42.85689794 -24.24046795 42.85689794 -21.484375 44.27734375 C-17.32622711 45.03919619 -13.32992906 45.27963864 -9.53515625 43.21875 C-7.385083 41.46433187 -5.73080026 39.77019427 -4.484375 37.27734375 C-4.41486959 35.73710379 -4.39985143 34.19399387 -4.421875 32.65234375 C-4.43089844 31.83507812 -4.43992187 31.0178125 -4.44921875 30.17578125 C-4.46082031 29.54929687 -4.47242188 28.9228125 -4.484375 28.27734375 C-11.01329228 27.8321903 -17.34327961 29.01287307 -23.484375 31.27734375 Z " fill="#40AF97" transform="translate(465.484375,491.72265625)"/>
<path d="M0 0 C0.77397629 -0.00637985 1.54795258 -0.0127597 2.34538269 -0.01933289 C3.57687798 -0.02100212 3.57687798 -0.02100212 4.83325195 -0.02270508 C6.11399345 -0.02769768 6.11399345 -0.02769768 7.42060852 -0.03279114 C9.2183885 -0.03783857 11.01617779 -0.04020014 12.81396484 -0.04003906 C15.57250129 -0.0422371 18.33064495 -0.06044705 21.08911133 -0.0793457 C22.83715684 -0.08227771 24.58520424 -0.08426379 26.33325195 -0.08520508 C27.1603215 -0.09239059 27.98739105 -0.09957611 28.83952332 -0.10697937 C34.65519396 -0.08357558 34.65519396 -0.08357558 36.8840332 2.14526367 C36.5540332 5.11526367 36.2240332 8.08526367 35.8840332 11.14526367 C24.6640332 11.14526367 13.4440332 11.14526367 1.8840332 11.14526367 C1.8840332 18.73526367 1.8840332 26.32526367 1.8840332 34.14526367 C12.1140332 34.14526367 22.3440332 34.14526367 32.8840332 34.14526367 C32.8840332 37.44526367 32.8840332 40.74526367 32.8840332 44.14526367 C30.06579128 45.55438463 27.71152039 45.2570992 24.5637207 45.24291992 C23.4317627 45.24042236 22.29980469 45.2379248 21.13354492 45.23535156 C19.68995605 45.22624756 18.24636719 45.21714355 16.7590332 45.20776367 C12.1802832 45.18713867 7.6015332 45.16651367 2.8840332 45.14526367 C2.5540332 55.04526367 2.2240332 64.94526367 1.8840332 75.14526367 C-1.7459668 75.14526367 -5.3759668 75.14526367 -9.1159668 75.14526367 C-9.1159668 50.72526367 -9.1159668 26.30526367 -9.1159668 1.14526367 C-5.75377891 0.47282609 -3.29555193 0.01859119 0 0 Z " fill="#40AE96" transform="translate(683.115966796875,468.854736328125)"/>
<path d="M0 0 C6.4700959 5.68071601 9.52294373 13.02762245 10.203125 21.54296875 C10.36271988 30.54678005 9.21522055 37.73163641 3.4375 44.875 C-1.89889714 50.39709594 -7.94930255 53.09400924 -15.625 53.4375 C-24.12599577 52.95941236 -30.34929334 49.30222937 -36 43 C-41.1058006 35.24565731 -41.64825685 27.09874792 -41 18 C-39.24702559 9.51869732 -35.22579709 3.254212 -28.13671875 -1.73828125 C-19.17719828 -7.02882076 -8.58458768 -5.35122132 0 0 Z M-26.25 10.1875 C-30.58045676 17.14716265 -30.55164513 24.1505011 -29 32 C-27.54366587 36.81223453 -26.04216887 39.3386236 -21.75 42.0625 C-15.76554744 43.55861314 -12.03119277 43.18805615 -6.6875 40.0625 C-2.35093862 35.93921213 -1.11664115 30.22221186 -0.90625 24.41015625 C-1.25178828 18.80379768 -2.40721945 13.44235544 -6 9 C-13.12438116 3.82129172 -19.71726368 3.83622858 -26.25 10.1875 Z " fill="#41AF97" transform="translate(762,493)"/>
<path d="M0 0 C0 3.96 0 7.92 0 12 C-2.041875 12.12375 -2.041875 12.12375 -4.125 12.25 C-8.67361899 12.7729121 -11.52906861 13.86769606 -15 17 C-16.952367 21.57289232 -17.33197447 25.89507922 -17.4140625 30.8046875 C-17.43342865 31.5286673 -17.4527948 32.25264709 -17.4727478 32.99856567 C-17.53209886 35.29059398 -17.57874878 37.58267374 -17.625 39.875 C-17.66322087 41.43752081 -17.70227494 43.00002148 -17.7421875 44.5625 C-17.83776308 48.37483465 -17.92195606 52.1872678 -18 56 C-21.63 56 -25.26 56 -29 56 C-29 37.85 -29 19.7 -29 1 C-25.7 1 -22.4 1 -19 1 C-18.34 2.65 -17.68 4.3 -17 6 C-16.01 5.195625 -15.02 4.39125 -14 3.5625 C-9.48711679 0.30881231 -5.51800492 0 0 0 Z " fill="#41AF97" transform="translate(807,488)"/>
<path d="M0 0 C3.375 -0.125 3.375 -0.125 7 0 C7.66 0.66 8.32 1.32 9 2 C8.67 4.97 8.34 7.94 8 11 C-2.23 11 -12.46 11 -23 11 C-23 10.67 -23 10.34 -23 10 C-20.36 9.67 -17.72 9.34 -15 9 C-15 8.67 -15 8.34 -15 8 C-8.07 8 -1.14 8 6 8 C6 6.35 6 4.7 6 3 C2.7 3 -0.6 3 -4 3 C-2.68 2.67 -1.36 2.34 0 2 C0 1.34 0 0.68 0 0 Z " fill="#49B69E" transform="translate(711,469)"/>
<path d="M0 0 C1.08023438 -0.00128906 2.16046875 -0.00257813 3.2734375 -0.00390625 C4.39234375 -0.00003906 5.51125 0.00382812 6.6640625 0.0078125 C8.33082031 0.00201172 8.33082031 0.00201172 10.03125 -0.00390625 C15.5558115 0.00267061 20.84919143 0.1451702 26.2890625 1.1328125 C22.57531554 3.53925391 18.95057416 3.39099891 14.6796875 3.328125 C13.95287781 3.3252951 13.22606812 3.32246521 12.47723389 3.31954956 C10.16433999 3.30838773 7.85183862 3.28329101 5.5390625 3.2578125 C3.96745352 3.24777751 2.39583846 3.23865256 0.82421875 3.23046875 C-3.02098372 3.20846154 -6.86589414 3.17395965 -10.7109375 3.1328125 C-10.7109375 2.4728125 -10.7109375 1.8128125 -10.7109375 1.1328125 C-7.08004021 0.29974949 -3.72219638 0.00429886 0 0 Z " fill="#44A890" transform="translate(684.7109375,468.8671875)"/>
<path d="M0 0 C0.33 0 0.66 0 1 0 C1.33 10.23 1.66 20.46 2 31 C2.33 31 2.66 31 3 31 C3 33.31 3 35.62 3 38 C0.03 38 -2.94 38 -6 38 C-6 37.67 -6 37.34 -6 37 C-4.02 37 -2.04 37 0 37 C0 24.79 0 12.58 0 0 Z " fill="#44B7A0" transform="translate(470,505)"/>
<path d="M0 0 C0.33 0.66 0.66 1.32 1 2 C0.113125 2.721875 -0.77375 3.44375 -1.6875 4.1875 C-4.63741207 6.63992096 -7.32793794 9.24934788 -10 12 C-10.66 11.67 -11.32 11.34 -12 11 C-8.19588166 7.08060535 -4.18423892 3.50897269 0 0 Z " fill="#44A992" transform="translate(210,376)"/>
<path d="M0 0 C0.763125 0.061875 1.52625 0.12375 2.3125 0.1875 C2.6425 1.1775 2.9725 2.1675 3.3125 3.1875 C0.3425 3.1875 -2.6275 3.1875 -5.6875 3.1875 C-2.6875 0.1875 -2.6875 0.1875 0 0 Z " fill="#48B69D" transform="translate(660.6875,526.8125)"/>
<path d="M0 0 C2 1 2 1 2 1 Z " fill="#56B39D" transform="translate(502,547)"/>
<path d="M0 0 C2 1 2 1 2 1 Z " fill="#51B8A1" transform="translate(336,517)"/>
<path d="" fill="#777977" transform="translate(0,0)"/>
<path d="" fill="#53B1A0" transform="translate(0,0)"/>
<path d="" fill="#4FB9A4" transform="translate(0,0)"/>
<path d="" fill="#53B39D" transform="translate(0,0)"/>
<path d="" fill="#54B8A2" transform="translate(0,0)"/>
<path d="" fill="#51BBA3" transform="translate(0,0)"/>
<path d="" fill="#59B29C" transform="translate(0,0)"/>
<path d="" fill="#57B5A1" transform="translate(0,0)"/>
<path d="" fill="#57B29F" transform="translate(0,0)"/>
<path d="" fill="#51B8A2" transform="translate(0,0)"/>
<path d="" fill="#55B59F" transform="translate(0,0)"/>
<path d="" fill="#54B7A0" transform="translate(0,0)"/>
<path d="" fill="#54BAA0" transform="translate(0,0)"/>
<path d="" fill="#4CBAA1" transform="translate(0,0)"/>
<path d="" fill="#53B5A0" transform="translate(0,0)"/>
<path d="" fill="#52BAA1" transform="translate(0,0)"/>
<path d="" fill="#53B8A4" transform="translate(0,0)"/>
<path d="" fill="#51B8A2" transform="translate(0,0)"/>
<path d="" fill="#53B9A3" transform="translate(0,0)"/>
<path d="" fill="#53BAA1" transform="translate(0,0)"/>
<path d="" fill="#52B7A1" transform="translate(0,0)"/>
<path d="" fill="#50B9A2" transform="translate(0,0)"/>
<path d="" fill="#51B6A3" transform="translate(0,0)"/>
<path d="" fill="#52B8A2" transform="translate(0,0)"/>
<path d="" fill="#51B6A1" transform="translate(0,0)"/>
<path d="" fill="#53BAA2" transform="translate(0,0)"/>
<path d="" fill="#4FB6A2" transform="translate(0,0)"/>
<path d="" fill="#53BAA3" transform="translate(0,0)"/>
<path d="" fill="#51B9A1" transform="translate(0,0)"/>
<path d="" fill="#4FB59E" transform="translate(0,0)"/>
<path d="" fill="#50B9A0" transform="translate(0,0)"/>
<path d="" fill="#50BBA3" transform="translate(0,0)"/>
<path d="" fill="#50B89F" transform="translate(0,0)"/>
<path d="" fill="#4EBCA6" transform="translate(0,0)"/>
<path d="" fill="#51B9A4" transform="translate(0,0)"/>
<path d="" fill="#52B9A2" transform="translate(0,0)"/>
<path d="" fill="#52BAA5" transform="translate(0,0)"/>
<path d="" fill="#53B8A1" transform="translate(0,0)"/>
<path d="" fill="#52B5A4" transform="translate(0,0)"/>
<path d="" fill="#50B7A1" transform="translate(0,0)"/>
<path d="" fill="#50BAA2" transform="translate(0,0)"/>
<path d="" fill="#52B5A1" transform="translate(0,0)"/>
<path d="" fill="#55B8A2" transform="translate(0,0)"/>
<path d="" fill="#52B69F" transform="translate(0,0)"/>
<path d="" fill="#52B8A4" transform="translate(0,0)"/>
<path d="" fill="#56B8A4" transform="translate(0,0)"/>
<path d="" fill="#54B59F" transform="translate(0,0)"/>
</svg>
